C:\OpenCap\opencap-processing\Data\4c262e12-931b-45fd-97cc-86b3655bb656\OpenSimData\Dynamics\jump2\GRF_jump2_jump_analysis.mot
version=1
nRows=4
nColumns=109
inDegrees=yes
endheader 
time	ground_force_SmoothSphereHalfSpaceForce_s1_r_vx	ground_force_SmoothSphereHalfSpaceForce_s1_r_vy	ground_force_SmoothSphereHalfSpaceForce_s1_r_vz	ground_force_SmoothSphereHalfSpaceForce_s1_r_px	ground_force_SmoothSphereHalfSpaceForce_s1_r_py	ground_force_SmoothSphereHalfSpaceForce_s1_r_pz	ground_torque_SmoothSphereHalfSpaceForce_s1_r_x	ground_torque_SmoothSphereHalfSpaceForce_s1_r_y	ground_torque_SmoothSphereHalfSpaceForce_s1_r_z	ground_force_SmoothSphereHalfSpaceForce_s2_r_vx	ground_force_SmoothSphereHalfSpaceForce_s2_r_vy	ground_force_SmoothSphereHalfSpaceForce_s2_r_vz	ground_force_SmoothSphereHalfSpaceForce_s2_r_px	ground_force_SmoothSphereHalfSpaceForce_s2_r_py	ground_force_SmoothSphereHalfSpaceForce_s2_r_pz	ground_torque_SmoothSphereHalfSpaceForce_s2_r_x	ground_torque_SmoothSphereHalfSpaceForce_s2_r_y	ground_torque_SmoothSphereHalfSpaceForce_s2_r_z	ground_force_SmoothSphereHalfSpaceForce_s3_r_vx	ground_force_SmoothSphereHalfSpaceForce_s3_r_vy	ground_force_SmoothSphereHalfSpaceForce_s3_r_vz	ground_force_SmoothSphereHalfSpaceForce_s3_r_px	ground_force_SmoothSphereHalfSpaceForce_s3_r_py	ground_force_SmoothSphereHalfSpaceForce_s3_r_pz	ground_torque_SmoothSphereHalfSpaceForce_s3_r_x	ground_torque_SmoothSphereHalfSpaceForce_s3_r_y	ground_torque_SmoothSphereHalfSpaceForce_s3_r_z	ground_force_SmoothSphereHalfSpaceForce_s4_r_vx	ground_force_SmoothSphereHalfSpaceForce_s4_r_vy	ground_force_SmoothSphereHalfSpaceForce_s4_r_vz	ground_force_SmoothSphereHalfSpaceForce_s4_r_px	ground_force_SmoothSphereHalfSpaceForce_s4_r_py	ground_force_SmoothSphereHalfSpaceForce_s4_r_pz	ground_torque_SmoothSphereHalfSpaceForce_s4_r_x	ground_torque_SmoothSphereHalfSpaceForce_s4_r_y	ground_torque_SmoothSphereHalfSpaceForce_s4_r_z	ground_force_SmoothSphereHalfSpaceForce_s5_r_vx	ground_force_SmoothSphereHalfSpaceForce_s5_r_vy	ground_force_SmoothSphereHalfSpaceForce_s5_r_vz	ground_force_SmoothSphereHalfSpaceForce_s5_r_px	ground_force_SmoothSphereHalfSpaceForce_s5_r_py	ground_force_SmoothSphereHalfSpaceForce_s5_r_pz	ground_torque_SmoothSphereHalfSpaceForce_s5_r_x	ground_torque_SmoothSphereHalfSpaceForce_s5_r_y	ground_torque_SmoothSphereHalfSpaceForce_s5_r_z	ground_force_SmoothSphereHalfSpaceForce_s6_r_vx	ground_force_SmoothSphereHalfSpaceForce_s6_r_vy	ground_force_SmoothSphereHalfSpaceForce_s6_r_vz	ground_force_SmoothSphereHalfSpaceForce_s6_r_px	ground_force_SmoothSphereHalfSpaceForce_s6_r_py	ground_force_SmoothSphereHalfSpaceForce_s6_r_pz	ground_torque_SmoothSphereHalfSpaceForce_s6_r_x	ground_torque_SmoothSphereHalfSpaceForce_s6_r_y	ground_torque_SmoothSphereHalfSpaceForce_s6_r_z	ground_force_SmoothSphereHalfSpaceForce_s1_l_vx	ground_force_SmoothSphereHalfSpaceForce_s1_l_vy	ground_force_SmoothSphereHalfSpaceForce_s1_l_vz	ground_force_SmoothSphereHalfSpaceForce_s1_l_px	ground_force_SmoothSphereHalfSpaceForce_s1_l_py	ground_force_SmoothSphereHalfSpaceForce_s1_l_pz	ground_torque_SmoothSphereHalfSpaceForce_s1_l_x	ground_torque_SmoothSphereHalfSpaceForce_s1_l_y	ground_torque_SmoothSphereHalfSpaceForce_s1_l_z	ground_force_SmoothSphereHalfSpaceForce_s2_l_vx	ground_force_SmoothSphereHalfSpaceForce_s2_l_vy	ground_force_SmoothSphereHalfSpaceForce_s2_l_vz	ground_force_SmoothSphereHalfSpaceForce_s2_l_px	ground_force_SmoothSphereHalfSpaceForce_s2_l_py	ground_force_SmoothSphereHalfSpaceForce_s2_l_pz	ground_torque_SmoothSphereHalfSpaceForce_s2_l_x	ground_torque_SmoothSphereHalfSpaceForce_s2_l_y	ground_torque_SmoothSphereHalfSpaceForce_s2_l_z	ground_force_SmoothSphereHalfSpaceForce_s3_l_vx	ground_force_SmoothSphereHalfSpaceForce_s3_l_vy	ground_force_SmoothSphereHalfSpaceForce_s3_l_vz	ground_force_SmoothSphereHalfSpaceForce_s3_l_px	ground_force_SmoothSphereHalfSpaceForce_s3_l_py	ground_force_SmoothSphereHalfSpaceForce_s3_l_pz	ground_torque_SmoothSphereHalfSpaceForce_s3_l_x	ground_torque_SmoothSphereHalfSpaceForce_s3_l_y	ground_torque_SmoothSphereHalfSpaceForce_s3_l_z	ground_force_SmoothSphereHalfSpaceForce_s4_l_vx	ground_force_SmoothSphereHalfSpaceForce_s4_l_vy	ground_force_SmoothSphereHalfSpaceForce_s4_l_vz	ground_force_SmoothSphereHalfSpaceForce_s4_l_px	ground_force_SmoothSphereHalfSpaceForce_s4_l_py	ground_force_SmoothSphereHalfSpaceForce_s4_l_pz	ground_torque_SmoothSphereHalfSpaceForce_s4_l_x	ground_torque_SmoothSphereHalfSpaceForce_s4_l_y	ground_torque_SmoothSphereHalfSpaceForce_s4_l_z	ground_force_SmoothSphereHalfSpaceForce_s5_l_vx	ground_force_SmoothSphereHalfSpaceForce_s5_l_vy	ground_force_SmoothSphereHalfSpaceForce_s5_l_vz	ground_force_SmoothSphereHalfSpaceForce_s5_l_px	ground_force_SmoothSphereHalfSpaceForce_s5_l_py	ground_force_SmoothSphereHalfSpaceForce_s5_l_pz	ground_torque_SmoothSphereHalfSpaceForce_s5_l_x	ground_torque_SmoothSphereHalfSpaceForce_s5_l_y	ground_torque_SmoothSphereHalfSpaceForce_s5_l_z	ground_force_SmoothSphereHalfSpaceForce_s6_l_vx	ground_force_SmoothSphereHalfSpaceForce_s6_l_vy	ground_force_SmoothSphereHalfSpaceForce_s6_l_vz	ground_force_SmoothSphereHalfSpaceForce_s6_l_px	ground_force_SmoothSphereHalfSpaceForce_s6_l_py	ground_force_SmoothSphereHalfSpaceForce_s6_l_pz	ground_torque_SmoothSphereHalfSpaceForce_s6_l_x	ground_torque_SmoothSphereHalfSpaceForce_s6_l_y	ground_torque_SmoothSphereHalfSpaceForce_s6_l_z	
          6.45500000	          0.00000000	         -0.00000000	         -0.00000000	         -5.29191025	          0.28273793	          0.13890476	          0.00000000	          0.00000000	          0.00000000	          0.00000000	         -0.00000000	         -0.00000000	         -5.13651205	          0.23166655	          0.18054244	          0.00000000	          0.00000000	          0.00000000	          0.00000000	         -0.00000000	         -0.00000000	         -5.21331194	          0.22145852	          0.24905563	          0.00000000	          0.00000000	          0.00000000	          0.00000000	         -0.00000000	         -0.00000000	         -5.25565407	          0.25207113	          0.19574641	          0.00000000	          0.00000000	          0.00000000	         -0.00000000	         -0.00000000	          0.00000000	         -5.07604241	          0.19996220	          0.22285069	          0.00000000	          0.00000000	          0.00000000	         -0.00000000	         -0.00000000	          0.00000000	         -5.15263000	          0.18962404	          0.29189796	          0.00000000	          0.00000000	          0.00000000	         -0.00000000	         -0.00000000	          0.00000000	         -4.99925965	          0.35892289	          0.20562465	          0.00000000	          0.00000000	          0.00000000	         -0.00000000	         -0.00000000	          0.00000000	         -4.92620758	          0.27119218	          0.21948540	          0.00000000	          0.00000000	          0.00000000	         -0.00000000	         -0.00000000	          0.00000000	         -4.91524658	          0.28955335	          0.12181032	          0.00000000	          0.00000000	          0.00000000	         -0.00000000	         -0.00000000	          0.00000000	         -4.95731985	          0.32523173	          0.16081428	          0.00000000	          0.00000000	          0.00000000	         -0.00000000	         -0.00000000	          0.00000000	         -4.88539542	          0.22856534	          0.19666655	          0.00000000	          0.00000000	          0.00000000	         -0.00000000	         -0.00000000	          0.00000000	         -4.87432644	          0.24669922	          0.09857056	          0.00000000	          0.00000000	          0.00000000	
          6.47526316	         -0.00000000	         -0.00000000	         -0.00000000	         -5.21723877	          0.32063779	          0.09857428	          0.00000000	          0.00000000	          0.00000000	         -0.00000000	         -0.00000000	         -0.00000000	         -5.08842343	          0.25042406	          0.09709923	          0.00000000	          0.00000000	          0.00000000	         -0.00000000	         -0.00000000	         -0.00000000	         -5.16543406	          0.23965739	          0.16503135	          0.00000000	          0.00000000	          0.00000000	         -0.00000000	         -0.00000000	         -0.00000000	         -5.19424564	          0.28020502	          0.13377901	          0.00000000	          0.00000000	          0.00000000	         -0.00000000	         -0.00000000	         -0.00000000	         -5.04299274	          0.20839504	          0.11529178	          0.00000000	          0.00000000	          0.00000000	         -0.00000000	         -0.00000000	         -0.00000000	         -5.11993838	          0.19736519	          0.18350786	          0.00000000	          0.00000000	          0.00000000	         -0.00000000	         -0.00000000	          0.00000000	         -4.85866247	          0.33001135	          0.17079879	          0.00000000	          0.00000000	          0.00000000	         -0.00000000	         -0.00000000	          0.00000000	         -4.77941473	          0.24363744	          0.18470648	          0.00000000	          0.00000000	          0.00000000	         -0.00000000	         -0.00000000	          0.00000000	         -4.76456847	          0.26342766	          0.08867486	          0.00000000	          0.00000000	          0.00000000	         -0.00000000	         -0.00000000	          0.00000000	         -4.81160221	          0.29774739	          0.12688099	          0.00000000	          0.00000000	          0.00000000	         -0.00000000	         -0.00000000	          0.00000000	         -4.73403181	          0.20213819	          0.16225330	          0.00000000	          0.00000000	          0.00000000	         -0.00000000	         -0.00000000	          0.00000000	         -4.71908673	          0.22169658	          0.06577938	          0.00000000	          0.00000000	          0.00000000	
          6.49552632	          0.00000000	         -0.00000000	         -0.00000000	         -5.13529169	          0.35753799	          0.07783327	          0.00000000	          0.00000000	          0.00000000	         -0.00000000	         -0.00000000	         -0.00000000	         -5.04982980	          0.27569026	          0.03076419	          0.00000000	          0.00000000	          0.00000000	         -0.00000000	         -0.00000000	         -0.00000000	         -5.12144425	          0.26759040	          0.10571774	          0.00000000	          0.00000000	          0.00000000	         -0.00000000	         -0.00000000	         -0.00000000	         -5.13089274	          0.31276011	          0.09419503	          0.00000000	          0.00000000	          0.00000000	         -0.00000000	         -0.00000000	         -0.00000000	         -5.02699853	          0.22850017	          0.02610033	          0.00000000	          0.00000000	          0.00000000	         -0.00000000	         -0.00000000	         -0.00000000	         -5.09886383	          0.22008987	          0.10102123	          0.00000000	          0.00000000	          0.00000000	         -0.00000000	         -0.00000000	          0.00000000	         -4.72508065	          0.30704074	          0.13484348	          0.00000000	          0.00000000	          0.00000000	         -0.00000000	         -0.00000000	          0.00000000	         -4.63902499	          0.22259678	          0.15450903	          0.00000000	          0.00000000	          0.00000000	         -0.00000000	         -0.00000000	          0.00000000	         -4.61991840	          0.24264348	          0.05944824	          0.00000000	          0.00000000	          0.00000000	         -0.00000000	         -0.00000000	          0.00000000	         -4.67239864	          0.27586727	          0.09428787	          0.00000000	          0.00000000	          0.00000000	         -0.00000000	         -0.00000000	          0.00000000	         -4.58857346	          0.18216685	          0.13533735	          0.00000000	          0.00000000	          0.00000000	         -0.00000000	         -0.00000000	          0.00000000	         -4.56934930	          0.20197549	          0.03983030	          0.00000000	          0.00000000	          0.00000000	
          6.51578947	          0.00000000	         -0.00000000	         -0.00000000	         -5.02797240	          0.38279217	          0.05280719	          0.00000000	          0.00000000	          0.00000000	          0.00000000	         -0.00000000	         -0.00000000	         -4.98793023	          0.29767694	         -0.02291373	          0.00000000	          0.00000000	          0.00000000	          0.00000000	         -0.00000000	         -0.00000000	         -5.05053208	          0.29229086	          0.06059714	          0.00000000	          0.00000000	          0.00000000	          0.00000000	         -0.00000000	         -0.00000000	         -5.04127689	          0.33783325	          0.05952040	          0.00000000	          0.00000000	          0.00000000	          0.00000000	         -0.00000000	         -0.00000000	         -4.98761817	          0.24990282	         -0.04050320	          0.00000000	          0.00000000	          0.00000000	          0.00000000	         -0.00000000	         -0.00000000	         -5.05087352	          0.24425734	          0.04275525	          0.00000000	          0.00000000	          0.00000000	         -0.00000000	         -0.00000000	          0.00000000	         -4.60018628	          0.29039745	          0.09361129	          0.00000000	          0.00000000	          0.00000000	         -0.00000000	         -0.00000000	          0.00000000	         -4.50467214	          0.20909524	          0.12103920	          0.00000000	          0.00000000	          0.00000000	         -0.00000000	         -0.00000000	          0.00000000	         -4.48287288	          0.22903557	          0.02646954	          0.00000000	          0.00000000	          0.00000000	         -0.00000000	         -0.00000000	          0.00000000	         -4.54140043	          0.26072206	          0.05715581	          0.00000000	          0.00000000	          0.00000000	         -0.00000000	         -0.00000000	          0.00000000	         -4.44811500	          0.17026625	          0.10614363	          0.00000000	          0.00000000	          0.00000000	         -0.00000000	         -0.00000000	          0.00000000	         -4.42614013	          0.18997058	          0.01114491	          0.00000000	          0.00000000	          0.00000000	
